<svg width="464" height="142" viewBox="0 0 464 142" fill="none" xmlns="http://www.w3.org/2000/svg">
<g clip-path="url(#clip0_74_493)">
<path d="M176.258 19.7955C180.576 19.5155 185.888 19.7196 189.669 22.1673C191.311 23.2305 192.38 24.9634 193.567 26.3495C197.82 31.3128 198.452 32.9152 199.747 39.0432C201.927 49.3645 201.131 59.9999 195.146 68.9658C191.801 73.9765 187.265 76.5524 181.365 77.6339C156.323 79.4741 150.815 44.1012 162.626 28.0153C166.714 22.4474 169.642 20.9795 176.258 19.7955ZM179.478 64.2923C185.337 61.5578 185.184 49.9158 185.054 44.379C184.962 40.4873 183.954 30.79 178.587 31.0645C177.05 31.568 176.664 31.8424 175.607 33.1055C171.269 38.294 171.159 61.0626 177.351 64.3004C178.215 64.3779 178.63 64.351 179.478 64.2923Z" fill="#131313"/>
<path d="M375.309 19.3623C383.16 22.3974 392.91 18.8492 401.619 21.8588C415.745 26.7402 418.703 45.5707 404.33 52.12C408.107 60.3446 412.069 68.4825 416.214 76.5275C412.362 76.9331 405.433 76.76 401.358 76.7701L400.226 76.6304C398.857 75.9447 392.619 56.2994 391.165 53.6406C391.038 53.4072 390.738 52.6918 390.599 52.4013C390.06 55.2043 390.183 59.9774 390.183 62.9517C390.163 67.5271 390.184 72.1025 390.247 76.6775C385.883 76.8815 379.542 76.7931 375.165 76.7093C374.748 71.7848 375.038 63.0405 375.056 57.7055L375.309 19.3623ZM389.739 46.4463C392.632 46.3882 394.208 46.7403 396.287 44.7261C400.054 39.6755 399.98 31.159 392.096 30.5834C391.529 30.542 390.958 30.5187 390.388 30.5013C389.63 35.3504 390.526 41.7089 389.739 46.4463Z" fill="#131313"/>
<path d="M305.337 19.4656C306.006 20.5807 305.527 37.4025 305.217 39.4617C309.355 40.9444 310.213 39.6104 314.535 39.5883C314.387 37.1443 314.088 21.4906 314.788 19.9556C320.04 20.9896 323.769 20.9442 328.941 19.8628C329.672 20.5979 329.411 31.3465 329.436 33.192C329.585 42.3064 329.655 51.4219 329.644 60.5375C329.658 65.5998 329.519 71.6981 329.785 76.6904C327.639 76.7063 315.891 76.909 314.603 76.6013C314.176 76.1215 314.266 75.431 314.261 74.7679C314.073 67.4766 314.347 60.0127 314.151 52.5921C311.706 52.6252 308.29 52.7643 305.933 52.5319C306.024 60.5371 305.914 68.7126 305.925 76.7339C300.9 76.6836 295.89 76.8376 290.853 76.6966C290.621 72.6598 290.727 68.2101 290.743 64.1288L290.808 46.0101C290.854 38.3505 290.556 26.8487 291.056 19.3831C294.674 21.1267 299.386 20.6042 303.522 20.5856L305.337 19.4656Z" fill="#131313"/>
<path d="M209.001 19.4615C213.258 20.9527 219.105 21.289 223.298 19.5017C223.616 22.4133 223.48 27.8932 223.481 30.9614C223.47 37.0627 223.517 43.1639 223.622 49.2643C223.687 53.9199 223.285 58.9113 224.985 63.1868C227.908 65.0439 229.361 64.7237 232.084 62.7547C232.846 58.2823 232.389 53.9727 232.642 49.5163C233.212 39.4756 233.01 29.4734 233.147 19.4176C233.596 19.6993 234.495 20.2503 235.098 20.3368C238.393 20.8083 242.535 20.7935 245.84 20.3861C246.209 20.3406 247.477 19.5388 247.793 19.3367L247.91 31.4256C247.875 40.7237 248.389 50.0295 248.19 59.3156C248.007 64.4996 246.945 68.6711 243.089 72.4024C235.578 79.6701 220.666 79.424 213.458 71.8567C208.371 66.5161 208.403 57.7104 208.483 50.839C208.539 46.034 208.479 40.8368 208.834 35.9986C209.037 30.5105 208.755 24.9757 209.001 19.4615Z" fill="#131313"/>
<path d="M175.278 85.2253C178.821 86.8366 185.665 85.8683 189.798 86.1557C193.221 86.3928 197.889 87.0615 201.075 88.1939C207.923 90.6275 211.775 100.65 208.901 107.242C207.254 111.018 205.286 112.642 201.717 114.285C202.914 118.429 205.503 123.017 207.438 126.972C208.745 129.644 210.682 133.77 212.184 136.223C207.985 136.7 202.449 136.547 198.097 136.538C196.518 135.862 193.398 124.897 192.439 122.785C191.207 120.072 190.745 117.095 188.939 114.414C188.697 116.757 188.762 120.561 188.761 122.981L188.781 136.522C186.326 136.51 176.94 136.869 175.439 136.148C174.451 133.837 175.441 91.5367 175.278 85.2253ZM192.703 109.164C193.233 108.794 194.054 108.259 194.514 107.841C196.948 104.705 197.89 98.9661 194.417 96.1929C192.93 95.0062 190.764 95.0553 188.938 94.9459C188.354 95.9826 188.389 107.696 188.68 108.974C189.687 109.499 191.561 109.252 192.703 109.164Z" fill="#131313"/>
<path d="M339.054 19.4983C339.481 19.7194 339.923 19.935 340.374 20.1066C342.148 20.7825 364.273 21.0358 365.776 20.3283C366.162 20.1468 366.567 20.0151 366.966 19.8657C367.668 20.5503 367.422 29.3696 367.421 31.0717C363.051 31.2637 358.041 31.2157 353.604 31.3106C353.77 33.7689 353.838 38.8901 353.356 41.2458C357.5 41.2733 361.644 41.2688 365.788 41.232L365.8 41.3157C366.208 44.5934 366.129 49.7029 366.21 53.1855C362.49 53.4321 357.629 53.3356 353.794 53.4187C353.819 54.937 353.557 62.9424 353.647 63.6172C357.593 63.6616 363.817 63.8384 367.576 63.4506C367.925 67.6963 367.63 72.3205 367.798 76.6683C358.537 76.8996 348.011 76.833 338.726 76.7157C338.491 70.2033 338.617 63.1001 338.624 56.5394C338.564 44.1909 338.707 31.8421 339.054 19.4983Z" fill="#131313"/>
<path d="M136.092 19.5581C138.442 19.1261 146.767 20.4093 149.21 21.1994C149.665 25.4503 149.431 31.3498 149.596 35.8712C146.583 32.7753 140.427 27.6662 136.453 32.7421C132.458 37.2541 139.336 42.884 143.161 45.1927C156.897 53.4847 152.009 74.5437 135.696 77.4101C131.223 78.4399 125.267 76.8442 121.134 75.1569C120.834 71.7679 121.18 63.5402 121.344 59.9699C124.534 62.7739 127.738 65.2585 132.14 64.4279C139.471 63.045 135.482 56.2427 131.71 53.4631C128.497 51.0951 124.974 47.7147 123.018 44.3952C119.218 37.9434 121.366 30.5873 125.634 25.0269C127.905 22.0439 132.44 19.9915 136.092 19.5581Z" fill="#131313"/>
<path d="M218.158 85.3513C220.596 86.5799 240.827 86.3645 243.496 85.5506C243.335 88.2363 243.524 92.6201 243.634 95.3201C239.632 95.3356 235.455 95.5269 231.505 95.4691C231.231 98.8059 231.547 101.58 230.995 105.086C234.304 104.793 238.674 105.142 242.409 104.875C242.804 107.219 242.68 112.932 242.685 115.498C238.983 115.492 235.282 115.54 231.582 115.642C231.563 118.833 231.503 122.023 231.401 125.212C232.48 125.693 237.969 124.931 239.427 124.884C240.588 124.847 242.554 124.712 243.448 125.607C244.586 126.748 243.994 134.402 243.994 136.434C241.425 136.638 237.373 136.533 234.684 136.535L217.943 136.541C217.675 134.034 217.816 128.703 217.818 125.951L217.859 106.248L217.912 93.3156C217.919 91.2663 217.848 87.2478 218.158 85.3513Z" fill="#131313"/>
<path d="M252.91 19.5095C253.298 19.6358 254.446 20.2795 254.904 20.3095C264.253 20.9195 274.085 20.5691 283.483 20.5058C283.882 20.5031 285.364 19.5348 285.73 19.3008C285.672 22.9549 285.644 27.7567 285.845 31.3249C283.016 31.1558 279.549 31.4477 276.509 31.34C276.569 32.9547 276.447 34.8995 276.482 36.5964C276.686 46.4791 276.743 56.3643 276.651 66.2487L276.65 76.7206C271.628 76.756 266.606 76.7548 261.583 76.7171C261.254 73.4458 261.465 65.7204 261.472 62.1511C261.559 51.9069 261.576 41.6623 261.524 31.4178C258.651 31.4383 255.777 31.3869 252.907 31.2639C252.782 27.5213 252.891 23.2888 252.91 19.5095Z" fill="#131313"/>
<path d="M122.46 85.276C122.631 85.3621 123.518 85.7751 123.65 85.781C128.474 85.9975 142.982 87.1219 146.704 85.1155C146.69 88.5284 146.715 91.9418 146.778 95.3545C143.144 95.289 139.275 95.5777 135.734 95.4096C135.931 99.7909 135.373 101.713 134.286 105.881C135.739 105.822 137.538 106.145 139.058 106.252C141.619 106.431 143.671 105.976 146.122 105.398C146.029 108.512 146.152 112.294 146.153 115.475L138.942 115.529L135.796 115.573L135.848 136.471C131.324 136.533 126.801 136.553 122.277 136.53C121.794 124.8 122.484 112.554 122.268 100.772C122.178 95.8552 122.117 90.102 122.46 85.276Z" fill="#131313"/>
<path d="M359.819 86.4024C385.985 86.2412 413.173 85.8132 439.323 86.3084C438.656 86.9806 437.983 87.6485 437.305 88.3103C432.975 92.5167 429.231 91.3929 423.519 91.3765L406.759 91.3446C385.251 91.4213 363.743 91.3378 342.237 91.093L262.869 90.594L262.906 86.9987L359.819 86.4024Z" fill="#131313"/>
<path d="M85.9996 65.7546C86.0835 65.7985 86.1675 65.8425 86.2511 65.8863C93.4064 72.3134 94.0924 83.6109 92.6403 92.2382C89.3914 111.544 69.8496 119.808 60.0033 134.863C59.3691 135.893 58.5283 137.607 57.4526 137.948L57.0626 137.53C56.3084 135.217 56.8642 131.714 57.1156 129.356C58.8969 112.654 72.0727 106.649 79.3835 92.8957C84.4618 83.3422 85.5376 76.2953 85.9996 65.7546Z" fill="url(#paint0_linear_74_493)"/>
<path d="M360.96 101.13C380.73 101.062 401.441 100.704 421.145 101.124C420.967 101.326 420.782 101.521 420.589 101.708C415.395 106.84 415.063 106.049 408.001 106.049C403.962 106.034 399.924 106.04 395.886 106.067C371.495 106.39 347.102 106.44 322.711 106.216C309.674 106.182 296.602 106.069 283.56 106.022C280.809 106.036 278 105.411 275.268 105.332C271.149 105.213 266.976 105.228 262.855 105.208L262.91 101.705L360.96 101.13Z" fill="#131313"/>
<path d="M68.4053 48.1379C69.5409 48.7186 71.8167 52.1503 72.2114 53.6079C72.8641 55.8824 73.3524 58.3091 73.5811 60.6696C75.9122 84.7433 50.5215 97.3572 46.1511 119.354C45.8916 120.66 46.3361 124.39 46.1045 124.867L45.7677 124.838C41.8756 120.167 38.6634 113.766 39.6657 107.536C40.6466 101.439 45.0517 96.2714 48.2024 91.1257C52.5194 84.1006 57.3991 77.4702 61.6081 70.374C62.4498 68.955 63.6476 67.159 64.2316 65.6229C65.6449 61.9057 67.3553 58.0273 67.8796 54.065C68.1437 52.0694 68.0307 50.1293 68.4053 48.1379Z" fill="url(#paint1_linear_74_493)"/>
<path d="M165.975 85.4046L166.408 85.3303C166.495 85.4255 166.598 85.5387 166.719 85.6699C166.867 99.8286 166.894 123.044 167.049 136.414C163.731 136.726 157.402 136.54 153.99 136.512L153.511 136.295C153.009 135.659 153.197 129.144 153.2 127.882L153.228 113.694C153.249 105.319 152.931 93.6204 153.438 85.4059C153.861 85.5614 154.291 85.6955 154.728 85.8077C156.624 86.285 164.106 86.5323 165.975 85.4046Z" fill="#131313"/>
<path d="M353.225 115.848L403.431 115.761C402.531 116.614 401.624 117.46 400.71 118.297C398.663 120.161 397.511 120.641 394.703 120.696C392.204 120.744 389.704 120.71 387.206 120.7L371.655 120.685C358.093 120.728 344.53 120.645 330.97 120.438C325.543 120.373 318.854 120.538 313.599 120.294L262.812 119.871L262.918 116.369C274.424 116.209 285.931 116.134 297.439 116.142L353.225 115.848Z" fill="#131313"/>
<path d="M332.207 130.574L369.752 130.554C374.762 130.561 380.199 130.739 385.133 130.617C383.901 131.752 380.63 135.019 379.294 135.151C374.337 135.64 367.712 135.478 362.724 135.513C346.614 135.688 330.501 135.711 314.39 135.584L282.131 135.407C279.449 135.399 264.96 135.629 263.516 134.871C262.535 133.806 262.786 132.385 262.816 130.919C285.485 130.356 309.476 130.62 332.207 130.574Z" fill="#131313"/>
<path d="M39.8382 2.11572C41.2767 3.75624 44.2446 6.7779 45.3302 8.40905C51.2285 17.523 59.6387 30.1854 59.1537 41.3837C58.7769 50.0827 51.5148 59.7048 46.9042 66.3952C35.6661 82.7027 19.1894 102.662 27.9072 123.567C30.9946 130.971 35.9849 135.062 40.0426 141.331H35.5695C34.6811 139.038 26.2887 135.956 23.7724 134.307C15.075 128.605 6.60199 121.777 2.57889 111.862C2.0182 110.48 1.20878 108.084 0 107.331V90.8733C1.28259 90.0296 3.71773 83.6209 4.94393 81.4486L25.2114 45.8654C26.6048 43.4019 28.348 41.1056 29.5818 38.5461C31.4731 34.6228 33.8305 30.7749 35.7371 26.8894C37.6229 23.0587 39.0286 19.0097 39.9223 14.8342C40.7078 11.0223 40.8119 5.88642 39.8382 2.11572Z" fill="url(#paint2_linear_74_493)"/>
<path d="M463.635 19.5938V76.7076C459.379 76.7367 453.077 76.9473 448.979 76.6581C447.054 72.5304 438.351 46.0156 437.084 44.9227L436.857 45.09C436.589 47.0859 436.842 52.6231 436.865 54.8572L437.122 76.6351C432.275 76.738 427.426 76.7687 422.577 76.7273C422.237 70.6269 422.444 62.832 422.459 56.6286C422.473 44.2196 422.552 31.8108 422.695 19.4026C426.144 21.3361 432.247 20.397 436.666 20.7164C437.552 22.5343 438.188 24.7588 439.044 26.5671C441.68 32.1191 443.828 37.7882 446.116 43.4899C447.073 45.8725 447.986 48.5915 449.027 50.9389C449.251 51.446 449.682 51.5565 450.173 51.6552L450.493 51.4336C450.706 50.2953 449.667 41.611 449.465 39.7941C448.678 32.7131 449.279 26.5067 449.407 19.4716C453.782 21.8116 459.209 20.2581 463.635 19.5938Z" fill="#131313"/>
</g>
<defs>
<linearGradient id="paint0_linear_74_493" x1="74.9727" y1="80.9271" x2="74.9727" y2="137.948" gradientUnits="userSpaceOnUse">
<stop stop-color="#FB7F09"/>
<stop offset="1" stop-color="#BE0200"/>
</linearGradient>
<linearGradient id="paint1_linear_74_493" x1="57.488" y1="67.4532" x2="56.6062" y2="124.867" gradientUnits="userSpaceOnUse">
<stop stop-color="#FB7F09"/>
<stop offset="1" stop-color="#BE0200"/>
</linearGradient>
<linearGradient id="paint2_linear_74_493" x1="29.5869" y1="47.6915" x2="29.5869" y2="141.331" gradientUnits="userSpaceOnUse">
<stop stop-color="#FB7F09"/>
<stop offset="1" stop-color="#BE0200"/>
</linearGradient>
<clipPath id="clip0_74_493">
<rect width="463.634" height="141.331" fill="white"/>
</clipPath>
</defs>
</svg>
